<?xml version="1.0" standalone="no"?>
<!DOCTYPE svg PUBLIC "-//W3C//DTD SVG 20010904//EN"
 "http://www.w3.org/TR/2001/REC-SVG-20010904/DTD/svg10.dtd">
<svg version="1.0" xmlns="http://www.w3.org/2000/svg"
 width="700.000000pt" height="700.000000pt" viewBox="0 0 700.000000 700.000000"
 preserveAspectRatio="xMidYMid meet">
<metadata>
Created by potrace 1.11, written by Peter Selinger 2001-2013
</metadata>
<g transform="translate(0.000000,700.000000) scale(0.100000,-0.100000)"
fill="#000000" stroke="none">
<path d="M3516 6362 c-3 -5 1 -9 9 -9 8 0 12 4 9 9 -3 4 -7 8 -9 8 -2 0 -6 -4
-9 -8z"/>
<path d="M3830 6319 c0 -5 5 -7 10 -4 6 3 10 8 10 11 0 2 -4 4 -10 4 -5 0 -10
-5 -10 -11z"/>
<path d="M3470 6276 c-6 -6 -10 -6 -10 -2 0 5 -7 3 -15 -4 -8 -7 -22 -10 -30
-6 -9 3 -14 2 -11 -3 3 -4 -10 -13 -29 -19 -26 -7 -34 -7 -29 1 3 7 -1 4 -10
-7 -8 -10 -22 -16 -31 -13 -8 4 -15 3 -15 -2 0 -14 -37 -20 -50 -7 -8 8 -10 7
-5 -6 5 -13 2 -18 -10 -18 -9 0 -31 -6 -48 -14 -32 -14 -188 -71 -239 -86 -14
-5 -29 -6 -32 -2 -3 3 -6 0 -6 -7 0 -8 -7 -11 -15 -7 -8 3 -15 1 -15 -5 0 -6
-7 -8 -16 -5 -8 3 -13 2 -10 -3 5 -7 -37 -22 -69 -25 -5 -1 -13 -5 -16 -9 -4
-5 -18 -10 -33 -10 -14 -1 -26 -6 -26 -11 0 -4 -9 -6 -20 -3 -11 3 -18 1 -15
-3 5 -7 -45 -29 -78 -34 -7 -1 -18 -5 -24 -9 -7 -5 -18 -5 -25 -1 -7 5 -8 3
-3 -6 6 -9 4 -12 -6 -8 -8 3 -23 0 -34 -8 -14 -10 -22 -11 -32 -2 -11 9 -13 8
-11 -1 2 -7 -18 -21 -44 -31 -27 -10 -48 -16 -48 -13 0 3 -6 0 -13 -6 -8 -6
-22 -12 -33 -14 -10 -2 -28 -8 -39 -12 -11 -4 -35 -14 -54 -22 -19 -7 -36 -11
-39 -8 -2 2 -14 -2 -25 -10 -15 -11 -24 -12 -34 -3 -11 9 -12 7 -7 -7 6 -15 3
-17 -19 -13 -15 3 -24 1 -21 -3 3 -5 0 -10 -5 -10 -26 -3 -30 -4 -37 -11 -13
-13 -36 -9 -28 5 4 6 -2 2 -14 -10 -19 -19 -139 -66 -169 -66 -7 0 -13 -4 -13
-9 0 -4 -7 -8 -16 -8 -8 0 -13 4 -9 9 3 5 0 13 -6 17 -7 4 -9 3 -6 -2 3 -6 3
-15 -1 -20 -8 -12 -92 -47 -92 -38 0 4 -7 1 -15 -6 -8 -7 -22 -10 -30 -6 -9 3
-14 2 -11 -3 7 -11 -52 -33 -65 -25 -5 3 -9 1 -9 -3 0 -5 -14 -14 -30 -20 -19
-7 -28 -8 -24 -1 4 5 -5 2 -19 -7 -15 -9 -31 -14 -37 -10 -5 3 -10 2 -10 -3 0
-12 -59 -34 -71 -26 -5 3 -9 0 -9 -7 0 -6 -8 -9 -20 -6 -11 3 -18 2 -15 -3 3
-4 -3 -10 -13 -13 -9 -2 -26 -8 -36 -13 -12 -4 -17 -4 -13 3 3 5 0 10 -7 10
-9 0 -12 -7 -8 -15 4 -11 1 -14 -11 -9 -9 3 -17 2 -17 -2 0 -5 -28 -18 -63
-29 -34 -12 -100 -35 -147 -53 -47 -17 -95 -34 -106 -36 -19 -4 -21 -11 -19
-57 1 -29 4 -57 7 -62 4 -5 9 -41 12 -79 4 -39 9 -90 12 -114 3 -30 1 -47 -8
-52 -10 -7 -9 -9 3 -9 11 0 17 -9 17 -25 0 -13 -4 -22 -9 -20 -4 3 -11 1 -14
-5 -4 -6 -3 -10 2 -9 23 4 30 -4 30 -33 2 -65 11 -153 18 -170 4 -10 5 -36 3
-57 -2 -22 -1 -38 3 -35 3 2 9 -17 13 -43 9 -69 8 -85 -6 -77 -8 5 -7 1 2 -10
15 -19 16 -27 25 -126 2 -30 7 -71 9 -90 3 -19 0 -41 -7 -49 -9 -12 -9 -13 1
-7 16 10 21 -5 26 -89 3 -38 5 -70 6 -70 1 0 4 -19 5 -43 2 -24 6 -50 9 -59 4
-9 1 -23 -6 -31 -8 -9 -8 -13 -2 -9 7 4 14 -2 17 -13 3 -13 1 -18 -6 -14 -8 5
-7 2 1 -7 6 -7 12 -25 12 -40 0 -15 -6 -30 -12 -32 -8 -3 -6 -6 5 -6 9 -1 17
-6 17 -12 0 -5 -6 -7 -12 -3 -10 6 -10 5 -1 -7 6 -8 10 -27 9 -42 -2 -15 1
-27 6 -27 6 0 8 -22 6 -50 -1 -28 0 -50 3 -50 4 0 9 -16 11 -35 3 -29 1 -35
-11 -30 -14 4 -14 3 0 -8 11 -8 19 -36 23 -82 4 -39 8 -79 9 -90 1 -11 -3 -20
-10 -20 -6 0 -15 -3 -19 -7 -3 -4 2 -6 13 -4 18 4 21 -3 27 -52 4 -31 10 -79
14 -107 4 -27 7 -70 7 -95 0 -25 3 -47 7 -50 4 -3 9 -36 11 -73 2 -36 6 -70
10 -73 4 -4 2 -13 -4 -21 -7 -8 -8 -13 -1 -13 17 0 26 -128 10 -147 -9 -12
-10 -15 0 -9 7 4 14 2 16 -6 6 -16 18 -127 21 -184 1 -23 5 -46 7 -50 3 -5 4
-24 3 -41 -1 -18 1 -33 5 -33 4 0 6 -24 6 -54 -1 -30 2 -52 5 -50 4 2 10 -31
14 -74 4 -42 9 -88 10 -102 2 -14 6 -54 10 -90 8 -75 24 -144 32 -137 3 3 22
-4 42 -16 20 -13 57 -34 84 -47 26 -14 47 -28 47 -32 0 -5 9 -8 20 -8 11 0 20
-4 20 -9 0 -5 11 -12 25 -15 16 -4 23 -11 19 -18 -4 -7 -3 -8 4 -4 14 8 55
-18 45 -28 -4 -4 0 -4 10 0 10 3 17 1 17 -5 0 -6 3 -11 8 -10 15 2 52 -14 52
-22 0 -5 7 -9 16 -9 9 0 12 -5 8 -12 -4 -6 -3 -8 4 -4 13 8 118 -50 115 -63
-2 -6 4 -8 11 -5 20 8 106 -44 106 -64 0 -15 2 -15 11 -2 8 11 12 12 16 3 2
-7 11 -13 19 -13 8 0 14 -5 14 -12 0 -6 3 -8 6 -5 10 10 44 -12 40 -26 -1 -6
-1 -9 1 -4 3 4 9 7 14 7 6 0 7 -5 3 -12 -4 -7 -3 -8 4 -4 6 4 33 -5 59 -20 27
-15 58 -32 70 -38 13 -6 23 -15 23 -19 0 -5 4 -6 9 -2 5 3 15 -1 23 -8 7 -7
34 -23 61 -35 26 -12 47 -27 47 -33 0 -5 4 -8 9 -4 5 3 17 -3 27 -12 10 -10
20 -18 23 -18 3 0 5 -4 3 -8 -1 -5 2 -6 8 -2 5 3 42 -11 81 -31 51 -27 67 -40
57 -46 -10 -7 -9 -8 4 -4 20 6 78 -21 78 -36 0 -6 3 -8 7 -5 6 6 111 -47 123
-62 3 -3 10 -7 15 -8 16 -2 179 -95 186 -106 3 -5 9 -8 13 -8 16 2 74 -33 69
-42 -4 -6 -1 -7 7 -2 8 5 18 1 27 -10 7 -11 13 -16 13 -12 0 3 24 -6 53 -22
28 -15 93 -50 142 -76 50 -26 97 -53 105 -59 8 -7 27 -18 43 -26 15 -7 27 -18
27 -24 0 -7 3 -7 8 -1 14 19 72 46 84 39 7 -4 8 -3 4 4 -4 6 6 18 24 27 16 8
30 12 30 8 0 -5 4 -2 9 6 8 13 12 13 28 0 16 -13 17 -12 5 2 -11 14 -8 18 19
29 17 7 36 18 43 24 6 6 39 25 73 43 43 22 63 29 67 20 2 -7 5 -5 5 5 1 19
128 91 145 81 6 -3 8 -2 4 2 -11 11 90 68 104 59 6 -4 8 -3 5 3 -10 17 24 25
42 11 14 -11 14 -11 3 4 -11 14 -10 18 6 27 11 6 22 7 26 4 3 -3 6 -1 6 5 0 7
5 12 11 12 6 0 23 9 39 20 15 11 30 17 34 13 3 -3 6 -1 6 5 0 7 4 12 10 12 5
0 7 -8 3 -17 -3 -10 -3 -15 1 -11 4 3 9 14 10 23 1 9 15 23 31 31 22 11 31 12
44 2 14 -11 14 -11 3 3 -10 14 -10 18 4 23 9 3 21 3 26 -1 7 -3 8 -1 4 5 -4 8
12 21 46 37 29 13 66 33 82 44 17 11 33 18 37 15 4 -2 10 3 13 12 3 9 13 14
20 11 8 -3 16 -3 18 1 5 13 69 54 75 49 3 -3 15 3 26 14 12 11 27 17 35 14 7
-2 11 -1 8 4 -8 12 61 44 76 35 6 -4 8 -3 5 3 -4 6 4 18 18 27 14 9 25 13 25
9 0 -5 4 -3 8 3 11 18 109 64 117 56 5 -4 5 -1 1 6 -6 11 0 14 20 11 4 0 10 4
13 9 3 5 26 20 50 33 24 13 53 30 65 36 11 7 27 11 34 8 7 -3 10 -1 7 5 -7 11
29 32 39 23 3 -3 6 -1 6 5 0 14 60 43 73 35 5 -3 7 -2 4 3 -5 9 43 38 193 116
25 12 48 27 52 33 4 5 10 7 13 3 4 -3 16 3 27 14 11 11 26 17 34 14 9 -3 12
-1 9 4 -3 5 5 15 19 22 18 7 26 19 26 35 0 17 4 22 13 17 9 -6 9 -5 0 8 -7 8
-10 18 -6 21 6 7 9 29 11 105 1 24 5 41 10 38 4 -2 8 17 9 42 2 97 4 113 11
108 4 -2 6 12 6 32 -1 21 2 62 7 92 5 30 11 77 14 104 3 27 11 56 18 65 10 12
9 13 -1 7 -10 -6 -11 -1 -7 21 8 44 14 83 20 143 3 30 7 69 10 85 2 17 7 50
10 75 3 25 8 59 11 75 2 17 5 47 6 68 1 20 4 37 7 37 3 0 7 24 8 53 1 28 4 66
8 82 3 17 8 53 10 80 3 28 7 61 10 74 4 13 8 51 11 85 3 33 11 67 17 75 10 12
9 13 -2 6 -10 -5 -12 -4 -7 4 4 6 10 39 12 73 3 35 11 66 17 70 8 5 8 8 1 8
-8 0 -9 16 -3 53 8 54 13 92 24 192 4 33 9 67 12 75 3 8 7 33 9 55 7 85 12
130 14 135 4 9 7 34 8 78 2 32 5 41 15 36 9 -6 9 -5 0 8 -7 8 -10 18 -6 22 4
3 9 37 11 74 2 37 7 68 11 70 4 1 5 17 3 34 -3 17 -1 28 4 25 5 -3 8 12 6 34
-3 24 1 46 9 56 12 14 12 16 0 8 -8 -5 -12 -4 -8 1 3 5 8 38 12 74 4 36 9 74
10 85 2 11 4 26 4 33 1 8 6 10 14 6 9 -5 9 -4 1 5 -7 8 -8 31 -1 74 5 34 9 72
8 85 0 13 2 21 7 19 4 -3 5 15 3 40 -2 25 1 43 5 40 5 -3 9 14 10 36 1 65 7
131 13 141 2 6 6 24 7 42 2 36 -11 46 -64 52 -7 1 -10 7 -6 14 4 7 3 8 -5 4
-6 -4 -23 0 -38 9 -14 9 -22 12 -19 6 7 -10 -14 -5 -64 16 -18 8 -17 7 -57 17
-17 4 -34 14 -37 22 -3 8 -11 14 -18 14 -9 0 -8 -3 2 -10 20 -13 10 -12 -28 1
-18 6 -29 16 -25 22 3 5 2 7 -4 4 -15 -10 -124 24 -116 36 3 5 2 7 -4 4 -15
-10 -124 24 -116 36 4 6 0 8 -10 4 -9 -3 -31 0 -49 7 -18 7 -42 17 -53 21 -11
4 -29 10 -40 12 -10 2 -22 7 -25 11 -3 4 -16 9 -29 10 -13 2 -31 11 -40 21 -9
9 -11 10 -6 2 8 -12 6 -13 -10 -7 -11 4 -55 19 -97 33 -43 14 -76 29 -73 33 2
4 -7 5 -20 2 -15 -2 -25 0 -25 7 0 7 -4 10 -8 7 -5 -3 -19 1 -33 8 -13 7 -27
13 -32 14 -78 19 -125 37 -120 45 3 6 2 7 -4 4 -12 -8 -93 13 -93 24 0 5 -7 6
-15 3 -10 -4 -15 0 -15 12 0 14 -3 15 -8 6 -7 -10 -21 -8 -68 10 -32 12 -61
26 -62 30 -2 5 -8 5 -13 2 -6 -3 -16 0 -24 6 -8 7 -15 9 -15 5 0 -4 -6 -2 -13
4 -8 6 -18 7 -22 3 -5 -4 -5 2 -1 12 5 15 4 17 -8 7 -18 -15 -71 3 -60 21 6
10 5 10 -8 1 -8 -7 -18 -10 -22 -6 -3 4 -16 8 -28 10 -12 2 -25 9 -30 15 -4 7
-10 9 -14 6 -4 -4 -16 -2 -28 4 -23 13 -28 15 -52 17 -9 0 -12 6 -8 13 4 6 3
8 -3 5 -18 -12 -273 75 -273 93 0 11 -2 12 -8 3 -6 -10 -15 -10 -40 -1 -18 7
-32 16 -32 21 0 4 -4 6 -9 3 -5 -4 -22 -1 -38 5 -15 7 -37 14 -48 16 -10 2
-22 7 -25 11 -3 4 -14 8 -25 10 -37 5 -46 12 -39 24 6 10 4 10 -8 0 -11 -9
-18 -10 -23 -2 -3 6 -10 8 -15 5 -5 -3 -15 1 -23 9 -8 8 -17 13 -20 10 -6 -6
-124 34 -142 47 -14 11 -53 7 -65 -5z"/>
<path d="M3290 6260 c0 -5 5 -10 11 -10 5 0 7 5 4 10 -3 6 -8 10 -11 10 -2 0
-4 -4 -4 -10z"/>
<path d="M3655 6260 c-3 -5 -1 -10 4 -10 6 0 11 5 11 10 0 6 -2 10 -4 10 -3 0
-8 -4 -11 -10z"/>
<path d="M3706 6238 c3 -5 10 -6 15 -3 13 9 11 12 -6 12 -8 0 -12 -4 -9 -9z"/>
<path d="M4050 6120 c0 -5 5 -10 11 -10 5 0 7 5 4 10 -3 6 -8 10 -11 10 -2 0
-4 -4 -4 -10z"/>
<path d="M4156 6113 c-6 -14 -5 -15 5 -6 7 7 10 15 7 18 -3 3 -9 -2 -12 -12z"/>
<path d="M2775 6061 c-3 -5 -2 -12 3 -15 5 -3 9 1 9 9 0 17 -3 19 -12 6z"/>
<path d="M4210 6066 c0 -2 7 -7 16 -10 8 -3 12 -2 9 4 -6 10 -25 14 -25 6z"/>
<path d="M4255 6060 c-3 -5 -1 -10 4 -10 6 0 11 5 11 10 0 6 -2 10 -4 10 -3 0
-8 -4 -11 -10z"/>
<path d="M4290 6060 c0 -5 5 -10 11 -10 5 0 7 5 4 10 -3 6 -8 10 -11 10 -2 0
-4 -4 -4 -10z"/>
<path d="M4334 6062 c4 -3 14 -7 22 -8 9 -1 13 0 10 4 -4 3 -14 7 -22 8 -9 1
-13 0 -10 -4z"/>
<path d="M2636 6047 c3 -10 9 -15 12 -12 3 3 0 11 -7 18 -10 9 -11 8 -5 -6z"/>
<path d="M2593 6035 c0 -8 4 -12 9 -9 5 3 6 10 3 15 -9 13 -12 11 -12 -6z"/>
<path d="M2570 6001 c0 -6 4 -13 10 -16 6 -3 7 1 4 9 -7 18 -14 21 -14 7z"/>
<path d="M2435 5979 c-3 -4 2 -6 10 -5 21 3 28 13 10 13 -9 0 -18 -4 -20 -8z"/>
<path d="M2495 5980 c-3 -5 -1 -10 4 -10 6 0 11 5 11 10 0 6 -2 10 -4 10 -3 0
-8 -4 -11 -10z"/>
<path d="M2535 5980 c-3 -5 -1 -10 4 -10 6 0 11 5 11 10 0 6 -2 10 -4 10 -3 0
-8 -4 -11 -10z"/>
<path d="M2373 5935 c0 -8 4 -12 9 -9 5 3 6 10 3 15 -9 13 -12 11 -12 -6z"/>
<path d="M4650 5939 c0 -5 5 -7 10 -4 6 3 10 8 10 11 0 2 -4 4 -10 4 -5 0 -10
-5 -10 -11z"/>
<path d="M2276 5918 c3 -5 10 -6 15 -3 13 9 11 12 -6 12 -8 0 -12 -4 -9 -9z"/>
<path d="M4873 5873 c0 -9 4 -10 14 -2 7 6 13 12 13 14 0 1 -6 2 -13 2 -8 0
-14 -6 -14 -14z"/>
<path d="M4934 5856 c1 -8 5 -18 8 -22 4 -3 5 1 4 10 -1 8 -5 18 -8 22 -4 3
-5 -1 -4 -10z"/>
<path d="M5075 5831 c-3 -5 -2 -12 3 -15 5 -3 9 1 9 9 0 17 -3 19 -12 6z"/>
<path d="M1996 5802 c-3 -5 1 -9 9 -9 8 0 12 4 9 9 -3 4 -7 8 -9 8 -2 0 -6 -4
-9 -8z"/>
<path d="M1899 5788 c-5 -18 -6 -38 -1 -34 7 8 12 36 6 36 -2 0 -4 -1 -5 -2z"/>
<path d="M1949 5763 c-13 -16 -12 -17 4 -4 9 7 17 15 17 17 0 8 -8 3 -21 -13z"/>
<path d="M1775 5739 c-3 -4 2 -6 10 -5 21 3 28 13 10 13 -9 0 -18 -4 -20 -8z"/>
<path d="M5170 5740 c0 -5 5 -10 11 -10 5 0 7 5 4 10 -3 6 -8 10 -11 10 -2 0
-4 -4 -4 -10z"/>
<path d="M5239 5713 c-13 -16 -12 -17 4 -4 16 13 21 21 13 21 -2 0 -10 -8 -17
-17z"/>
<path d="M5295 5720 c3 -5 8 -10 11 -10 2 0 4 5 4 10 0 6 -5 10 -11 10 -5 0
-7 -4 -4 -10z"/>
<path d="M1695 5700 c-3 -5 -1 -10 4 -10 6 0 11 5 11 10 0 6 -2 10 -4 10 -3 0
-8 -4 -11 -10z"/>
<path d="M1546 5638 c3 -5 10 -6 15 -3 13 9 11 12 -6 12 -8 0 -12 -4 -9 -9z"/>
<path d="M5795 5640 c-3 -5 -1 -10 4 -10 6 0 11 5 11 10 0 6 -2 10 -4 10 -3 0
-8 -4 -11 -10z"/>
<path d="M1454 5622 c4 -3 14 -7 22 -8 9 -1 13 0 10 4 -4 3 -14 7 -22 8 -9 1
-13 0 -10 -4z"/>
<path d="M5615 5580 c3 -5 8 -10 11 -10 2 0 4 5 4 10 0 6 -5 10 -11 10 -5 0
-7 -4 -4 -10z"/>
<path d="M1310 5559 c0 -5 5 -7 10 -4 6 3 10 8 10 11 0 2 -4 4 -10 4 -5 0 -10
-5 -10 -11z"/>
<path d="M5735 5540 c3 -5 8 -10 11 -10 2 0 4 5 4 10 0 6 -5 10 -11 10 -5 0
-7 -4 -4 -10z"/>
<path d="M5880 5520 c-9 -6 -10 -10 -3 -10 6 0 15 5 18 10 8 12 4 12 -15 0z"/>
<path d="M5939 5528 c-5 -18 -6 -38 -1 -34 7 8 12 36 6 36 -2 0 -4 -1 -5 -2z"/>
<path d="M6015 5471 c-3 -5 -2 -12 3 -15 5 -3 9 1 9 9 0 17 -3 19 -12 6z"/>
<path d="M835 5099 c-3 -4 2 -6 10 -5 21 3 28 13 10 13 -9 0 -18 -4 -20 -8z"/>
<path d="M750 5096 c0 -2 8 -10 18 -17 15 -13 16 -12 3 4 -13 16 -21 21 -21
13z"/>
<path d="M875 5041 c-3 -5 -2 -12 3 -15 5 -3 9 1 9 9 0 17 -3 19 -12 6z"/>
<path d="M6170 4861 c0 -6 4 -13 10 -16 6 -3 7 1 4 9 -7 18 -14 21 -14 7z"/>
<path d="M896 4662 c-2 -4 -1 -14 4 -22 7 -11 9 -9 7 8 -1 24 -3 26 -11 14z"/>
<path d="M6107 4619 c7 -7 15 -10 18 -7 3 3 -2 9 -12 12 -14 6 -15 5 -6 -5z"/>
<path d="M6135 4541 c-3 -5 -2 -12 3 -15 5 -3 9 1 9 9 0 17 -3 19 -12 6z"/>
<path d="M916 4522 c-3 -5 1 -9 9 -9 8 0 12 4 9 9 -3 4 -7 8 -9 8 -2 0 -6 -4
-9 -8z"/>
<path d="M6185 4359 c-3 -4 2 -6 10 -5 21 3 28 13 10 13 -9 0 -18 -4 -20 -8z"/>
<path d="M937 4295 c-4 -8 -3 -16 1 -19 4 -3 9 4 9 15 2 23 -3 25 -10 4z"/>
<path d="M6095 4300 c-3 -5 -1 -10 4 -10 6 0 11 5 11 10 0 6 -2 10 -4 10 -3 0
-8 -4 -11 -10z"/>
<path d="M6055 4251 c-3 -5 -2 -12 3 -15 5 -3 9 1 9 9 0 17 -3 19 -12 6z"/>
<path d="M975 4180 c-3 -5 -1 -10 4 -10 6 0 11 5 11 10 0 6 -2 10 -4 10 -3 0
-8 -4 -11 -10z"/>
<path d="M873 4155 c0 -8 4 -12 9 -9 5 3 6 10 3 15 -9 13 -12 11 -12 -6z"/>
<path d="M985 4020 c-3 -6 1 -7 9 -4 18 7 21 14 7 14 -6 0 -13 -4 -16 -10z"/>
<path d="M6050 4020 c0 -5 5 -10 11 -10 5 0 7 5 4 10 -3 6 -8 10 -11 10 -2 0
-4 -4 -4 -10z"/>
<path d="M976 3982 c-3 -4 4 -9 15 -9 23 -2 25 3 4 10 -8 4 -16 3 -19 -1z"/>
<path d="M6035 3969 c-4 -6 -5 -12 -2 -15 2 -3 7 2 10 11 7 17 1 20 -8 4z"/>
<path d="M990 3939 c0 -5 5 -7 10 -4 6 3 10 8 10 11 0 2 -4 4 -10 4 -5 0 -10
-5 -10 -11z"/>
<path d="M6053 3889 c-2 -23 3 -25 10 -4 4 8 3 16 -1 19 -4 3 -9 -4 -9 -15z"/>
<path d="M6047 3839 c7 -7 15 -10 18 -7 3 3 -2 9 -12 12 -14 6 -15 5 -6 -5z"/>
<path d="M6006 3802 c-3 -5 1 -9 9 -9 8 0 12 4 9 9 -3 4 -7 8 -9 8 -2 0 -6 -4
-9 -8z"/>
<path d="M5990 3770 c0 -5 5 -10 11 -10 5 0 7 5 4 10 -3 6 -8 10 -11 10 -2 0
-4 -4 -4 -10z"/>
<path d="M1016 3662 c-3 -4 4 -9 15 -9 23 -2 25 3 4 10 -8 4 -16 3 -19 -1z"/>
<path d="M6015 3660 c3 -5 8 -10 11 -10 2 0 4 5 4 10 0 6 -5 10 -11 10 -5 0
-7 -4 -4 -10z"/>
<path d="M1000 3560 c-9 -6 -10 -10 -3 -10 6 0 15 5 18 10 8 12 4 12 -15 0z"/>
<path d="M1055 3460 c-3 -5 -1 -10 4 -10 6 0 11 5 11 10 0 6 -2 10 -4 10 -3 0
-8 -4 -11 -10z"/>
<path d="M5970 3419 c0 -5 5 -7 10 -4 6 3 10 8 10 11 0 2 -4 4 -10 4 -5 0 -10
-5 -10 -11z"/>
<path d="M1036 3367 c3 -10 9 -15 12 -12 3 3 0 11 -7 18 -10 9 -11 8 -5 -6z"/>
<path d="M5965 3200 c-3 -6 1 -7 9 -4 18 7 21 14 7 14 -6 0 -13 -4 -16 -10z"/>
<path d="M5930 3179 c0 -5 5 -7 10 -4 6 3 10 8 10 11 0 2 -4 4 -10 4 -5 0 -10
-5 -10 -11z"/>
<path d="M5930 3140 c0 -5 5 -10 11 -10 5 0 7 5 4 10 -3 6 -8 10 -11 10 -2 0
-4 -4 -4 -10z"/>
<path d="M5930 3099 c0 -5 5 -7 10 -4 6 3 10 8 10 11 0 2 -4 4 -10 4 -5 0 -10
-5 -10 -11z"/>
<path d="M1095 3060 c3 -5 8 -10 11 -10 2 0 4 5 4 10 0 6 -5 10 -11 10 -5 0
-7 -4 -4 -10z"/>
<path d="M5930 3060 c0 -5 5 -10 11 -10 5 0 7 5 4 10 -3 6 -8 10 -11 10 -2 0
-4 -4 -4 -10z"/>
<path d="M1093 3025 c0 -8 4 -12 9 -9 5 3 6 10 3 15 -9 13 -12 11 -12 -6z"/>
<path d="M5920 3020 c-9 -6 -10 -10 -3 -10 6 0 15 5 18 10 8 12 4 12 -15 0z"/>
<path d="M1093 2975 c0 -8 4 -12 9 -9 5 3 6 10 3 15 -9 13 -12 11 -12 -6z"/>
<path d="M1110 2879 c0 -5 5 -7 10 -4 6 3 10 8 10 11 0 2 -4 4 -10 4 -5 0 -10
-5 -10 -11z"/>
<path d="M5915 2860 c3 -5 8 -10 11 -10 2 0 4 5 4 10 0 6 -5 10 -11 10 -5 0
-7 -4 -4 -10z"/>
<path d="M1156 2783 c-6 -14 -5 -15 5 -6 7 7 10 15 7 18 -3 3 -9 -2 -12 -12z"/>
<path d="M5873 2765 c0 -8 4 -12 9 -9 5 3 6 10 3 15 -9 13 -12 11 -12 -6z"/>
<path d="M5913 2765 c0 -8 4 -12 9 -9 5 3 6 10 3 15 -9 13 -12 11 -12 -6z"/>
<path d="M5866 2722 c-3 -5 1 -9 9 -9 8 0 12 4 9 9 -3 4 -7 8 -9 8 -2 0 -6 -4
-9 -8z"/>
<path d="M1153 2687 c0 -8 6 -14 14 -14 9 0 10 4 2 14 -6 7 -12 13 -14 13 -1
0 -2 -6 -2 -13z"/>
<path d="M1139 2648 c-5 -18 -6 -38 -1 -34 7 8 12 36 6 36 -2 0 -4 -1 -5 -2z"/>
<path d="M5945 2640 c-3 -6 1 -7 9 -4 18 7 21 14 7 14 -6 0 -13 -4 -16 -10z"/>
<path d="M5893 2609 c-2 -23 3 -25 10 -4 4 8 3 16 -1 19 -4 3 -9 -4 -9 -15z"/>
<path d="M1175 2540 c-3 -5 -1 -10 4 -10 6 0 11 5 11 10 0 6 -2 10 -4 10 -3 0
-8 -4 -11 -10z"/>
<path d="M5870 2480 c0 -5 5 -10 11 -10 5 0 7 5 4 10 -3 6 -8 10 -11 10 -2 0
-4 -4 -4 -10z"/>
<path d="M1175 2460 c3 -5 8 -10 11 -10 2 0 4 5 4 10 0 6 -5 10 -11 10 -5 0
-7 -4 -4 -10z"/>
<path d="M5855 2420 c3 -5 8 -10 11 -10 2 0 4 5 4 10 0 6 -5 10 -11 10 -5 0
-7 -4 -4 -10z"/>
<path d="M1189 2363 c-13 -16 -12 -17 4 -4 9 7 17 15 17 17 0 8 -8 3 -21 -13z"/>
<path d="M1196 2318 c3 -5 10 -6 15 -3 13 9 11 12 -6 12 -8 0 -12 -4 -9 -9z"/>
<path d="M1190 2219 c0 -5 5 -7 10 -4 6 3 10 8 10 11 0 2 -4 4 -10 4 -5 0 -10
-5 -10 -11z"/>
<path d="M5806 2138 c3 -5 10 -6 15 -3 13 9 11 12 -6 12 -8 0 -12 -4 -9 -9z"/>
<path d="M1219 2128 c-5 -18 -6 -38 -1 -34 7 8 12 36 6 36 -2 0 -4 -1 -5 -2z"/>
<path d="M5794 2082 c4 -3 14 -7 22 -8 9 -1 13 0 10 4 -4 3 -14 7 -22 8 -9 1
-13 0 -10 -4z"/>
<path d="M5796 2038 c3 -5 10 -6 15 -3 13 9 11 12 -6 12 -8 0 -12 -4 -9 -9z"/>
<path d="M1235 2021 c-3 -5 -2 -12 3 -15 5 -3 9 1 9 9 0 17 -3 19 -12 6z"/>
<path d="M1186 1962 c-3 -5 1 -9 9 -9 8 0 12 4 9 9 -3 4 -7 8 -9 8 -2 0 -6 -4
-9 -8z"/>
<path d="M5700 1846 c0 -2 8 -10 18 -17 15 -13 16 -12 3 4 -13 16 -21 21 -21
13z"/>
<path d="M5575 1780 c3 -5 8 -10 11 -10 2 0 4 5 4 10 0 6 -5 10 -11 10 -5 0
-7 -4 -4 -10z"/>
<path d="M5493 1745 c0 -8 4 -12 9 -9 5 3 6 10 3 15 -9 13 -12 11 -12 -6z"/>
<path d="M1535 1711 c-3 -5 -2 -12 3 -15 5 -3 9 1 9 9 0 17 -3 19 -12 6z"/>
<path d="M5453 1695 c0 -8 4 -12 9 -9 5 3 6 10 3 15 -9 13 -12 11 -12 -6z"/>
<path d="M1596 1682 c-3 -5 1 -9 9 -9 8 0 12 4 9 9 -3 4 -7 8 -9 8 -2 0 -6 -4
-9 -8z"/>
<path d="M1815 1560 c-3 -5 -1 -10 4 -10 6 0 11 5 11 10 0 6 -2 10 -4 10 -3 0
-8 -4 -11 -10z"/>
<path d="M5307 1559 c7 -7 15 -10 18 -7 3 3 -2 9 -12 12 -14 6 -15 5 -6 -5z"/>
<path d="M1893 1515 c0 -8 4 -12 9 -9 5 3 6 10 3 15 -9 13 -12 11 -12 -6z"/>
<path d="M5050 1500 c0 -5 5 -10 11 -10 5 0 7 5 4 10 -3 6 -8 10 -11 10 -2 0
-4 -4 -4 -10z"/>
<path d="M1660 1486 c0 -2 8 -10 18 -17 15 -13 16 -12 3 4 -13 16 -21 21 -21
13z"/>
<path d="M1936 1482 c-3 -5 1 -9 9 -9 8 0 12 4 9 9 -3 4 -7 8 -9 8 -2 0 -6 -4
-9 -8z"/>
<path d="M2015 1460 c3 -5 8 -10 11 -10 2 0 4 5 4 10 0 6 -5 10 -11 10 -5 0
-7 -4 -4 -10z"/>
<path d="M4990 1465 c0 -7 30 -13 34 -7 3 4 -4 9 -15 9 -10 1 -19 0 -19 -2z"/>
<path d="M4946 1442 c-3 -5 1 -9 9 -9 8 0 12 4 9 9 -3 4 -7 8 -9 8 -2 0 -6 -4
-9 -8z"/>
<path d="M4733 1345 c0 -8 4 -12 9 -9 5 3 6 10 3 15 -9 13 -12 11 -12 -6z"/>
<path d="M4690 1300 c0 -5 5 -10 11 -10 5 0 7 5 4 10 -3 6 -8 10 -11 10 -2 0
-4 -4 -4 -10z"/>
<path d="M4655 1260 c-3 -5 -1 -10 4 -10 6 0 11 5 11 10 0 6 -2 10 -4 10 -3 0
-8 -4 -11 -10z"/>
<path d="M4575 1219 c-3 -4 2 -6 10 -5 21 3 28 13 10 13 -9 0 -18 -4 -20 -8z"/>
<path d="M2455 1200 c-3 -5 -1 -10 4 -10 6 0 11 5 11 10 0 6 -2 10 -4 10 -3 0
-8 -4 -11 -10z"/>
<path d="M2520 1200 c-9 -6 -10 -10 -3 -10 6 0 15 5 18 10 8 12 4 12 -15 0z"/>
<path d="M4410 1139 c0 -5 5 -7 10 -4 6 3 10 8 10 11 0 2 -4 4 -10 4 -5 0 -10
-5 -10 -11z"/>
<path d="M4375 1120 c-3 -5 -1 -10 4 -10 6 0 11 5 11 10 0 6 -2 10 -4 10 -3 0
-8 -4 -11 -10z"/>
<path d="M2613 1095 c0 -8 4 -12 9 -9 5 3 6 10 3 15 -9 13 -12 11 -12 -6z"/>
<path d="M4290 1066 c0 -2 7 -7 16 -10 8 -3 12 -2 9 4 -6 10 -25 14 -25 6z"/>
<path d="M2755 1041 c-3 -5 -2 -12 3 -15 5 -3 9 1 9 9 0 17 -3 19 -12 6z"/>
<path d="M4310 1001 c0 -6 4 -13 10 -16 6 -3 7 1 4 9 -7 18 -14 21 -14 7z"/>
<path d="M2830 979 c0 -5 5 -7 10 -4 6 3 10 8 10 11 0 2 -4 4 -10 4 -5 0 -10
-5 -10 -11z"/>
<path d="M4176 978 c3 -5 10 -6 15 -3 13 9 11 12 -6 12 -8 0 -12 -4 -9 -9z"/>
<path d="M2933 945 c0 -8 4 -12 9 -9 5 3 6 10 3 15 -9 13 -12 11 -12 -6z"/>
<path d="M4010 939 c0 -5 5 -7 10 -4 6 3 10 8 10 11 0 2 -4 4 -10 4 -5 0 -10
-5 -10 -11z"/>
<path d="M4016 898 c3 -5 10 -6 15 -3 13 9 11 12 -6 12 -8 0 -12 -4 -9 -9z"/>
<path d="M2870 866 c0 -2 7 -7 16 -10 8 -3 12 -2 9 4 -6 10 -25 14 -25 6z"/>
<path d="M3110 841 c0 -6 4 -13 10 -16 6 -3 7 1 4 9 -7 18 -14 21 -14 7z"/>
<path d="M3185 800 c-3 -6 1 -7 9 -4 18 7 21 14 7 14 -6 0 -13 -4 -16 -10z"/>
<path d="M3730 779 c0 -5 5 -7 10 -4 6 3 10 8 10 11 0 2 -4 4 -10 4 -5 0 -10
-5 -10 -11z"/>
<path d="M3360 680 c-9 -6 -10 -10 -3 -10 6 0 15 5 18 10 8 12 4 12 -15 0z"/>
</g>
</svg>
